<svg width="44" height="40" viewBox="0 0 44 40" fill="none" xmlns="http://www.w3.org/2000/svg">
<path fill-rule="evenodd" clip-rule="evenodd" d="M23.2542 32.5541C22.9931 32.7691 22.709 32.8613 22.4019 32.8305C21.9719 32.7998 21.6187 32.5541 21.3423 32.0933C21.0659 31.6325 20.8969 31.1409 20.8355 30.6187C20.6819 29.6664 20.5744 28.7294 20.513 27.8078C20.4516 26.8862 20.4055 25.9493 20.3748 24.9969C19.4841 25.2427 18.5781 25.4808 17.6567 25.7112C16.7353 25.9416 15.8292 26.1643 14.9385 26.3793C14.2628 26.5329 13.6869 26.5022 13.2109 26.2872C12.7348 26.0721 12.3586 25.7573 12.0822 25.3425C11.8057 24.9278 11.6291 24.467 11.5524 23.9601C11.4756 23.4533 11.4832 22.9848 11.5754 22.5547C12.4661 20.3736 13.5334 18.2539 14.7773 16.1957C16.0212 14.1374 17.4724 12.0638 19.1309 9.97486C19.4073 9.7291 19.8296 9.52174 20.3978 9.35278C20.966 9.18382 21.4498 9.20686 21.8491 9.4219C21.9105 9.48334 21.9565 9.52174 21.9873 9.5371C22.018 9.55246 22.0487 9.59086 22.0794 9.6523C22.1101 9.56014 22.1562 9.39118 22.2176 9.14542C22.3712 8.77678 22.5862 8.47726 22.8626 8.24686C23.139 8.01646 23.4462 7.94734 23.784 8.0395C24.3061 8.1931 24.667 8.43118 24.8667 8.75374C25.0663 9.0763 25.1508 9.46798 25.12 9.92878C24.7515 11.6798 24.4367 13.4693 24.1756 15.2971C23.9145 17.1249 23.7072 19.0833 23.5536 21.1723C24.4751 20.9573 25.4272 20.7653 26.41 20.5963C27.3928 20.4273 28.4217 20.2661 29.4967 20.1125C29.681 20.0817 29.8883 20.0817 30.1187 20.1125C30.349 20.1432 30.5794 20.1893 30.8097 20.2507C31.0401 20.3121 31.2243 20.4043 31.3626 20.5272C31.5008 20.6501 31.5699 20.8037 31.5699 20.988C31.5699 21.4181 31.3242 21.8174 30.8327 22.1861C30.3413 22.5547 29.8038 22.8005 29.2203 22.9233C28.2375 23.1077 27.27 23.3073 26.3179 23.5224C25.3657 23.7374 24.4136 23.9678 23.4615 24.2136C23.4308 25.3809 23.4231 26.579 23.4385 27.8078C23.4538 29.0366 23.5076 30.3269 23.5997 31.6785C23.6304 32.0472 23.5153 32.339 23.2542 32.5541ZM17.3153 17.4641C16.1328 19.4456 15.1423 21.5115 14.3438 23.6619C15.2959 23.3854 16.271 23.1012 17.2692 22.8094C18.2674 22.5176 19.304 22.2334 20.379 21.9569C20.5018 18.3934 20.9625 14.7684 21.7611 11.082C21.6996 11.2049 21.6228 11.3201 21.5307 11.4276C21.4386 11.5352 21.3618 11.635 21.3004 11.7272C19.8261 13.5704 18.4977 15.4827 17.3153 17.4641Z" fill="#161408"/>
<path fill-rule="evenodd" clip-rule="evenodd" d="M24.8224 36.9126C20.8964 38.2359 16.525 38.5059 12.6977 36.7029C8.81262 34.8726 6.0505 31.2356 4.68034 27.2283C3.45395 23.6385 3.43697 20.1293 4.22902 16.7871L4.7641 16.0863C9.52991 9.90558 15.3526 4.05508 23.3775 3.17066C32.2926 2.18793 40.4594 9.15743 40.7003 18.1471C40.9459 27.3175 32.9237 34.1819 24.8224 36.9126ZM28.7984 1.62288C19.1623 -0.416857 11.447 5.59919 5.60474 12.7108C7.52564 8.3391 10.6676 4.3519 14.0258 0.979759C14.4758 0.528168 13.7859 -0.303874 13.2816 0.114014C8.33871 4.21207 4.26394 10.0285 2.80835 16.3685C2.02734 17.4603 1.28565 18.5509 0.588161 19.6159C0.195656 20.2154 1.2163 20.9193 1.63785 20.3279L2.33038 19.3615C2.15192 21.2954 2.2275 23.2596 2.61158 25.2224C4.45304 34.62 12.4914 41.1737 22.161 39.467C31.0387 37.9002 40.7519 30.9507 42.3353 21.6472C43.8923 12.4968 37.9297 3.55621 28.7984 1.62288Z" fill="#075C7C"/>
</svg>
