<svg width="12" height="13" viewBox="0 0 12 13" fill="none" xmlns="http://www.w3.org/2000/svg">
<path d="M3.09 10.5832C3.69199 10.5832 4.18 10.0952 4.18 9.4932C4.18 8.89121 3.69199 8.4032 3.09 8.4032C2.48801 8.4032 2 8.89121 2 9.4932C2 10.0952 2.48801 10.5832 3.09 10.5832Z" fill="white"/>
<path d="M2.795 5.69829C2.375 5.62829 2 5.97329 2 6.39829C2 6.75329 2.265 7.03829 2.615 7.09829C4.075 7.35329 5.225 8.5083 5.485 9.9683C5.545 10.3183 5.83 10.5833 6.185 10.5833C6.61 10.5833 6.955 10.2083 6.89 9.78829C6.7233 8.76293 6.23804 7.81607 5.50303 7.08196C4.76802 6.34785 3.82057 5.86374 2.795 5.69829ZM2.78 2.84329C2.365 2.79829 2 3.13329 2 3.54829C2 3.91329 2.275 4.21329 2.635 4.24829C5.64 4.54829 8.03 6.93829 8.33 9.94329C8.365 10.3083 8.665 10.5833 9.03 10.5833C9.45 10.5833 9.78 10.2183 9.74 9.8033C9.375 6.1333 6.455 3.20829 2.78 2.84329Z" fill="white"/>
</svg>
