<svg width="21" height="21" viewBox="0 0 21 21" fill="none" xmlns="http://www.w3.org/2000/svg">
<path d="M4.375 19.25C4.14294 19.25 3.92038 19.1578 3.75628 18.9937C3.59219 18.8296 3.5 18.6071 3.5 18.375V2.625C3.5 2.39294 3.59219 2.17038 3.75628 2.00628C3.92038 1.84219 4.14294 1.75 4.375 1.75H16.625C16.8571 1.75 17.0796 1.84219 17.2437 2.00628C17.4078 2.17038 17.5 2.39294 17.5 2.625V18.375C17.5 18.6071 17.4078 18.8296 17.2437 18.9937C17.0796 19.1578 16.8571 19.25 16.625 19.25H4.375ZM13.125 14L17.5 10.5L13.125 7V9.625H7.875V11.375H13.125V14Z" fill="white"/>
</svg>
