<svg width="16" height="16" viewBox="0 0 16 16" fill="none" xmlns="http://www.w3.org/2000/svg">
<path d="M5.59998 11.3333L7.99998 8.93325L10.4 11.3333L11.3333 10.3999L8.93331 7.99992L11.3333 5.59992L10.4 4.66659L7.99998 7.06659L5.59998 4.66659L4.66665 5.59992L7.06665 7.99992L4.66665 10.3999L5.59998 11.3333ZM7.99998 14.6666C7.07776 14.6666 6.21109 14.4915 5.39998 14.1413C4.58887 13.791 3.88331 13.3161 3.28331 12.7166C2.68331 12.1166 2.20842 11.411 1.85865 10.5999C1.50887 9.78881 1.33376 8.92214 1.33331 7.99992C1.33331 7.0777 1.50842 6.21103 1.85865 5.39992C2.20887 4.58881 2.68376 3.88325 3.28331 3.28325C3.88331 2.68325 4.58887 2.20836 5.39998 1.85859C6.21109 1.50881 7.07776 1.3337 7.99998 1.33325C8.9222 1.33325 9.78887 1.50836 10.6 1.85859C11.4111 2.20881 12.1166 2.6837 12.7166 3.28325C13.3166 3.88325 13.7918 4.58881 14.142 5.39992C14.4922 6.21103 14.6671 7.0777 14.6666 7.99992C14.6666 8.92214 14.4915 9.78881 14.1413 10.5999C13.7911 11.411 13.3162 12.1166 12.7166 12.7166C12.1166 13.3166 11.4111 13.7917 10.6 14.1419C9.78887 14.4921 8.9222 14.667 7.99998 14.6666ZM7.99998 13.3333C9.48887 13.3333 10.75 12.8166 11.7833 11.7833C12.8166 10.7499 13.3333 9.48881 13.3333 7.99992C13.3333 6.51103 12.8166 5.24992 11.7833 4.21659C10.75 3.18325 9.48887 2.66659 7.99998 2.66659C6.51109 2.66659 5.24998 3.18325 4.21665 4.21659C3.18331 5.24992 2.66665 6.51103 2.66665 7.99992C2.66665 9.48881 3.18331 10.7499 4.21665 11.7833C5.24998 12.8166 6.51109 13.3333 7.99998 13.3333Z" fill="#F24E1E"/>
</svg>
