<svg width="16" height="16" viewBox="0 0 16 16" fill="none" xmlns="http://www.w3.org/2000/svg">
<path d="M7.06665 11.0666L11.7666 6.36659L10.8333 5.43325L7.06665 9.19992L5.16665 7.29992L4.23331 8.23325L7.06665 11.0666ZM7.99998 14.6666C7.07776 14.6666 6.21109 14.4915 5.39998 14.1413C4.58887 13.7915 3.88331 13.3166 3.28331 12.7166C2.68331 12.1166 2.20842 11.411 1.85865 10.5999C1.50842 9.78881 1.33331 8.92214 1.33331 7.99992C1.33331 7.0777 1.50842 6.21103 1.85865 5.39992C2.20842 4.58881 2.68331 3.88325 3.28331 3.28325C3.88331 2.68325 4.58887 2.20814 5.39998 1.85792C6.21109 1.50814 7.07776 1.33325 7.99998 1.33325C8.9222 1.33325 9.78887 1.50814 10.6 1.85792C11.4111 2.20814 12.1166 2.68325 12.7166 3.28325C13.3166 3.88325 13.7915 4.58881 14.1413 5.39992C14.4915 6.21103 14.6666 7.0777 14.6666 7.99992C14.6666 8.92214 14.4915 9.78881 14.1413 10.5999C13.7915 11.411 13.3166 12.1166 12.7166 12.7166C12.1166 13.3166 11.4111 13.7915 10.6 14.1413C9.78887 14.4915 8.9222 14.6666 7.99998 14.6666ZM7.99998 13.3333C9.48887 13.3333 10.75 12.8166 11.7833 11.7833C12.8166 10.7499 13.3333 9.48881 13.3333 7.99992C13.3333 6.51103 12.8166 5.24992 11.7833 4.21658C10.75 3.18325 9.48887 2.66659 7.99998 2.66659C6.51109 2.66659 5.24998 3.18325 4.21665 4.21658C3.18331 5.24992 2.66665 6.51103 2.66665 7.99992C2.66665 9.48881 3.18331 10.7499 4.21665 11.7833C5.24998 12.8166 6.51109 13.3333 7.99998 13.3333Z" fill="#05FF3C"/>
</svg>
