<svg width="21" height="21" viewBox="0 0 21 21" fill="none" xmlns="http://www.w3.org/2000/svg">
<path d="M5.25 16.625H7.875V11.375H13.125V16.625H15.75V8.75L10.5 4.8125L5.25 8.75V16.625ZM5.25 18.375C4.76875 18.375 4.35692 18.2038 4.0145 17.8614C3.6715 17.5184 3.5 17.1062 3.5 16.625V8.75C3.5 8.47292 3.56212 8.21042 3.68637 7.9625C3.81004 7.71458 3.98125 7.51042 4.2 7.35L9.45 3.4125C9.61042 3.29583 9.77812 3.20833 9.95312 3.15C10.1281 3.09167 10.3104 3.0625 10.5 3.0625C10.6896 3.0625 10.8719 3.09167 11.0469 3.15C11.2219 3.20833 11.3896 3.29583 11.55 3.4125L16.8 7.35C17.0188 7.51042 17.1903 7.71458 17.3145 7.9625C17.4382 8.21042 17.5 8.47292 17.5 8.75V16.625C17.5 17.1062 17.3288 17.5184 16.9864 17.8614C16.6434 18.2038 16.2312 18.375 15.75 18.375H11.375V13.125H9.625V18.375H5.25Z" fill="#4F46E5"/>
</svg>
