<svg width="20" height="16" viewBox="0 0 20 16" fill="none" xmlns="http://www.w3.org/2000/svg">
<path d="M19.0625 11.6875C19.1562 11.25 19.1562 10.7812 19.0625 10.3438L19.875 9.875C19.9688 9.84375 20 9.71875 19.9688 9.625C19.75 8.9375 19.4062 8.34375 18.9375 7.8125C18.875 7.75 18.75 7.71875 18.6562 7.78125L17.8438 8.25C17.5 7.96875 17.125 7.71875 16.6875 7.59375V6.65625C16.6875 6.53125 16.625 6.4375 16.5312 6.4375C15.8125 6.28125 15.125 6.28125 14.4375 6.4375C14.3438 6.4375 14.2812 6.53125 14.2812 6.65625V7.59375C13.8438 7.71875 13.4688 7.96875 13.125 8.25L12.3125 7.78125C12.2188 7.71875 12.0938 7.75 12.0312 7.8125C11.5625 8.34375 11.1875 8.9375 11 9.625C10.9688 9.71875 11 9.84375 11.0938 9.875L11.9062 10.3438C11.8125 10.7812 11.8125 11.25 11.9062 11.6875L11.0938 12.1562C11 12.1875 10.9688 12.3125 11 12.4062C11.1875 13.0938 11.5625 13.6875 12.0312 14.2188C12.0938 14.2812 12.2188 14.3125 12.3125 14.25L13.125 13.7812C13.4688 14.0625 13.8438 14.3125 14.2812 14.4375V15.375C14.2812 15.5 14.3438 15.5938 14.4375 15.5938C15.1562 15.75 15.8438 15.75 16.5312 15.5938C16.625 15.5938 16.6875 15.5 16.6875 15.375V14.4375C17.125 14.3125 17.5 14.0625 17.8438 13.7812L18.6562 14.25C18.75 14.3125 18.875 14.2812 18.9375 14.2188C19.4062 13.6875 19.75 13.0938 19.9688 12.4062C20 12.3125 19.9688 12.1875 19.875 12.1562L19.0625 11.6875ZM15.5 12.5312C14.6562 12.5312 13.9688 11.8438 13.9688 11C13.9688 10.1875 14.6562 9.5 15.5 9.5C16.3125 9.5 17 10.1875 17 11C17 11.8438 16.3125 12.5312 15.5 12.5312ZM7 8C9.1875 8 11 6.21875 11 4C11 1.8125 9.1875 0 7 0C4.78125 0 3 1.8125 3 4C3 6.21875 4.78125 8 7 8ZM13.2812 15.0938C13.1875 15.0625 13.125 15 13.0625 14.9688L12.8125 15.125C12.625 15.2188 12.4062 15.2812 12.1875 15.2812C11.875 15.2812 11.5312 15.125 11.3125 14.875C10.7188 14.2812 10.2812 13.5 10.0312 12.7188C9.875 12.1562 10.0938 11.5625 10.5938 11.2812L10.8438 11.125C10.8438 11.0625 10.8438 10.9688 10.8438 10.9062L10.5938 10.75C10.0938 10.4688 9.875 9.875 10.0312 9.3125C10.0625 9.21875 10.125 9.15625 10.1562 9.0625C10.0312 9.03125 9.90625 9 9.78125 9H9.25C8.5625 9.34375 7.8125 9.5 7 9.5C6.1875 9.5 5.40625 9.34375 4.71875 9H4.1875C1.875 9 0 10.9062 0 13.2188V14.5C0 15.3438 0.65625 16 1.5 16H12.5C12.8125 16 13.0938 15.9062 13.3438 15.75C13.3125 15.625 13.2812 15.5 13.2812 15.375V15.0938Z" fill="white"/>
</svg>
