<svg width="17" height="16" viewBox="0 0 17 16" fill="none" xmlns="http://www.w3.org/2000/svg">
<path d="M16.9688 11.8438L16.125 6.84375C16.0312 6.375 15.625 6.03125 15.125 6.03125H7.5V4.03125H10.5C10.75 4.03125 11 3.78125 11 3.53125V0.5C11 0.25 10.75 0 10.5 0H2.5C2.21875 0 2 0.25 2 0.5V3.5C2 3.78125 2.21875 4 2.5 4H5.5V6H2.84375C2.34375 6 1.9375 6.375 1.84375 6.84375L1 11.8438C1 11.9688 0.96875 12.0625 0.96875 12.1875V15C0.96875 15.5625 1.4375 16 1.96875 16H15.9688C16.5312 16 16.9688 15.5625 16.9688 15V12.1875C17 12.0625 16.9688 11.9688 16.9688 11.8438ZM9.75 7.75C9.75 7.5 9.96875 7.25 10.25 7.25H10.75C11 7.25 11.25 7.5 11.25 7.75V8.25C11.25 8.53125 11 8.75 10.75 8.75H10.25C9.96875 8.75 9.75 8.53125 9.75 8.25V7.75ZM8.75 9.75H9.25C9.5 9.75 9.75 10 9.75 10.25V10.75C9.75 11.0312 9.5 11.25 9.25 11.25H8.75C8.46875 11.25 8.25 11.0312 8.25 10.75V10.25C8.25 10 8.46875 9.75 8.75 9.75ZM7.75 7.25C8 7.25 8.25 7.5 8.25 7.75V8.25C8.25 8.53125 8 8.75 7.75 8.75H7.25C6.96875 8.75 6.75 8.53125 6.75 8.25V7.75C6.75 7.5 6.96875 7.25 7.25 7.25H7.75ZM3.5 2.5V1.5H9.5V2.5H3.5ZM4.75 8.75H4.25C3.96875 8.75 3.75 8.53125 3.75 8.25V7.75C3.75 7.5 3.96875 7.25 4.25 7.25H4.75C5 7.25 5.25 7.5 5.25 7.75V8.25C5.25 8.53125 5 8.75 4.75 8.75ZM5.25 10.75V10.25C5.25 10 5.46875 9.75 5.75 9.75H6.25C6.5 9.75 6.75 10 6.75 10.25V10.75C6.75 11.0312 6.5 11.25 6.25 11.25H5.75C5.46875 11.25 5.25 11.0312 5.25 10.75ZM12 14.25C12 14.4062 11.875 14.5 11.75 14.5H6.25C6.09375 14.5 6 14.4062 6 14.25V13.75C6 13.625 6.09375 13.5 6.25 13.5H11.75C11.875 13.5 12 13.625 12 13.75V14.25ZM12.75 10.75C12.75 11.0312 12.5 11.25 12.25 11.25H11.75C11.4688 11.25 11.25 11.0312 11.25 10.75V10.25C11.25 10 11.4688 9.75 11.75 9.75H12.25C12.5 9.75 12.75 10 12.75 10.25V10.75ZM14.25 8.25C14.25 8.53125 14 8.75 13.75 8.75H13.25C12.9688 8.75 12.75 8.53125 12.75 8.25V7.75C12.75 7.5 12.9688 7.25 13.25 7.25H13.75C14 7.25 14.25 7.5 14.25 7.75V8.25Z" fill="white"/>
</svg>
