<svg width="12" height="13" viewBox="0 0 12 13" fill="none" xmlns="http://www.w3.org/2000/svg">
<path d="M8.25 1.70825H3.75C3.05404 1.709 2.38679 1.9858 1.89467 2.47792C1.40255 2.97004 1.12574 3.63729 1.125 4.33325V8.83325C1.12574 9.52922 1.40255 10.1965 1.89467 10.6886C2.38679 11.1807 3.05404 11.4575 3.75 11.4583H8.25C8.94596 11.4575 9.61321 11.1807 10.1053 10.6886C10.5975 10.1965 10.8743 9.52922 10.875 8.83325V4.33325C10.8743 3.63729 10.5975 2.97004 10.1053 2.47792C9.61321 1.9858 8.94596 1.709 8.25 1.70825ZM6 8.83325C5.55499 8.83325 5.11998 8.70129 4.74997 8.45406C4.37996 8.20683 4.09157 7.85542 3.92127 7.44429C3.75097 7.03316 3.70642 6.58076 3.79323 6.1443C3.88005 5.70784 4.09434 5.30693 4.40901 4.99226C4.72368 4.67759 5.12459 4.4633 5.56105 4.37649C5.9975 4.28967 6.4499 4.33423 6.86104 4.50452C7.27217 4.67482 7.62357 4.96321 7.87081 5.33322C8.11804 5.70323 8.25 6.13824 8.25 6.58325C8.24938 7.1798 8.01213 7.75173 7.59031 8.17356C7.16848 8.59538 6.59655 8.83263 6 8.83325ZM8.8125 4.33325C8.70125 4.33325 8.59249 4.30026 8.49999 4.23845C8.40749 4.17665 8.33539 4.08879 8.29282 3.98601C8.25024 3.88323 8.2391 3.77013 8.26081 3.66101C8.28251 3.5519 8.33609 3.45167 8.41475 3.373C8.49342 3.29434 8.59365 3.24076 8.70276 3.21906C8.81188 3.19736 8.92498 3.2085 9.02776 3.25107C9.13054 3.29364 9.21839 3.36574 9.2802 3.45824C9.34201 3.55075 9.375 3.6595 9.375 3.77075C9.375 3.91994 9.31574 4.06301 9.21025 4.1685C9.10476 4.27399 8.96168 4.33325 8.8125 4.33325ZM7.5 6.58325C7.5 6.87992 7.41203 7.16993 7.2472 7.41661C7.08238 7.66328 6.84811 7.85554 6.57402 7.96907C6.29994 8.0826 5.99834 8.11231 5.70736 8.05443C5.41639 7.99655 5.14912 7.85369 4.93934 7.64391C4.72956 7.43413 4.5867 7.16686 4.52882 6.87589C4.47094 6.58492 4.50065 6.28332 4.61418 6.00923C4.72771 5.73514 4.91997 5.50087 5.16664 5.33605C5.41332 5.17123 5.70333 5.08325 6 5.08325C6.39782 5.08325 6.77936 5.24129 7.06066 5.52259C7.34196 5.8039 7.5 6.18543 7.5 6.58325Z" fill="white"/>
</svg>
