<svg width="21" height="17" viewBox="0 0 21 17" fill="none" xmlns="http://www.w3.org/2000/svg">
<path d="M19.6875 11.4062L16.875 8.59375C16.5 8.21875 16 8 15.4688 8H12.9688C12.4375 8 11.9688 8.46875 11.9688 9V11.5C11.9688 12.0312 12.1875 12.5312 12.5625 12.9062L15.375 15.7188C15.7812 16.125 16.4062 16.125 16.8125 15.7188L19.6875 12.8438C20.0938 12.4375 20.0938 11.8125 19.6875 11.4062ZM13.9688 10.75C13.5625 10.75 13.2188 10.4375 13.2188 10C13.2188 9.59375 13.5625 9.25 13.9688 9.25C14.4062 9.25 14.7188 9.59375 14.7188 10C14.7188 10.4375 14.4062 10.75 13.9688 10.75ZM7 8C9.1875 8 11 6.21875 11 4C11 1.8125 9.1875 0 7 0C4.78125 0 3 1.8125 3 4C3 6.21875 4.78125 8 7 8ZM10.9688 11.5V9.1875C10.5938 9.09375 10.1875 9 9.78125 9H9.25C8.5625 9.3125 7.8125 9.5 7 9.5C6.1875 9.5 5.40625 9.3125 4.71875 9H4.1875C1.875 9 0 10.9062 0 13.2188V14.5C0 15.3438 0.65625 16 1.5 16H12.5C12.9688 16 13.4062 15.7812 13.6562 15.4062L11.8438 13.5938C11.2812 13.0312 10.9688 12.2812 10.9688 11.5Z" fill="white"/>
</svg>
