<svg width="20" height="17" viewBox="0 0 20 17" fill="none" xmlns="http://www.w3.org/2000/svg">
<path d="M19.4375 8.5L15.8438 7.09375C15.7188 7.03125 15.4375 6.96875 15.125 7.09375L11.5312 8.5C11.2188 8.625 11 8.9375 11 9.25C11 12.75 13.125 15.1562 15.125 15.9375C15.4375 16.0625 15.6875 16 15.8438 15.9375C17.4375 15.3125 20 13.1562 20 9.25C20 8.9375 19.7812 8.625 19.4375 8.5ZM15.5 14.4688V8.5625L18.4688 9.71875C18.2812 12.4375 16.5625 13.9375 15.5 14.4688ZM7 8C9.1875 8 11 6.21875 11 4C11 1.8125 9.1875 0 7 0C4.78125 0 3 1.8125 3 4C3 6.21875 4.78125 8 7 8ZM10 9.25C10 9.1875 10 9.125 10.0312 9.03125C9.9375 9.03125 9.875 9 9.78125 9H9.25C8.5625 9.34375 7.8125 9.5 7 9.5C6.1875 9.5 5.40625 9.34375 4.71875 9H4.1875C1.875 9 0 10.9062 0 13.2188V14.5C0 15.3438 0.65625 16 1.5 16H12.5C12.6875 16 12.9062 15.9688 13.0938 15.875C11.4062 14.5625 10 12.25 10 9.25Z" fill="white"/>
</svg>
