<svg width="48" height="45" viewBox="0 0 48 45" fill="none" xmlns="http://www.w3.org/2000/svg">
<g clip-path="url(#clip0_32_304)">
<path fill-rule="evenodd" clip-rule="evenodd" d="M29.2588 39.9465C33.3576 39.3428 37.3751 37.5984 39.9669 34.254C42.5977 30.859 43.408 26.3641 42.8099 22.1714C42.2732 18.416 40.6956 15.2816 38.4728 12.6633C31.2186 9.14054 23.0676 6.26236 15.231 9.22609C6.84156 12.3986 2.72825 22.317 6.59396 30.4363C10.5375 38.7186 20.8011 41.192 29.2588 39.9465ZM9.69171 10.3126C17.3517 4.11961 26.9568 5.97655 35.3902 9.66015C31.6944 6.63719 27.0851 4.5113 22.5623 3.03161C21.9564 2.83356 22.1934 1.77894 22.8324 1.92228C29.0967 3.32918 35.3673 6.66133 39.542 11.6493C40.7334 12.2675 41.8893 12.9025 42.9942 13.5346C43.616 13.8905 43.0261 14.9812 42.382 14.6457C42.0332 14.4644 41.6806 14.2818 41.3264 14.0991C42.3632 15.7412 43.1874 17.5256 43.736 19.4489C46.3608 28.6584 42.1732 38.1479 32.7829 41.018C24.1616 43.6532 12.3528 41.8718 6.71918 34.3014C1.17854 26.8553 2.43318 16.1816 9.69171 10.3126Z" fill="#075C7C"/>
<path d="M18.1944 30.1637C19.1158 30.0715 20.1524 29.941 21.3042 29.772C22.4559 29.603 23.6307 29.4264 24.8286 29.2421C26.0264 29.0578 27.2165 28.8734 28.399 28.6891C29.5815 28.5048 30.6641 28.3358 31.6469 28.1822C31.7698 28.1822 31.931 28.0824 32.1307 27.8827C32.3303 27.683 32.5069 27.4603 32.6605 27.2146C32.8141 26.9688 32.9139 26.7307 32.9599 26.5003C33.006 26.2699 32.9369 26.1086 32.7526 26.0165C32.5991 25.955 32.2996 25.8782 31.8543 25.7861C31.4089 25.6939 31.0173 25.6632 30.6795 25.6939C30.0038 25.7554 29.2436 25.8398 28.399 25.9474C27.5544 26.0549 26.6944 26.1701 25.8191 26.293C24.9437 26.4158 24.0991 26.531 23.2852 26.6386C22.4713 26.7461 21.7879 26.8306 21.2351 26.892C21.6651 26.339 22.1411 25.717 22.6633 25.0258C23.1854 24.3346 23.6922 23.6126 24.1836 22.86C24.675 22.1074 25.1203 21.3624 25.5196 20.6251C25.9189 19.8878 26.2414 19.212 26.4871 18.5976C26.9171 17.461 26.9324 16.2475 26.5332 14.9573C26.3489 14.5886 26.0648 14.2507 25.6809 13.9435C25.2969 13.6363 24.8132 13.4059 24.2296 13.2523C23.3389 13.1294 22.4559 13.1294 21.5806 13.2523C20.7053 13.3752 19.876 13.5672 19.0928 13.8283C18.3096 14.0894 17.6186 14.4043 17.0196 14.773C16.4207 15.1416 15.9831 15.4949 15.7066 15.8328C15.6452 15.9864 15.5838 16.1861 15.5224 16.4318C15.4609 16.6776 15.4456 16.8773 15.4763 17.0309C15.4763 17.0923 15.5224 17.1845 15.6145 17.3074C15.7066 17.4302 15.8372 17.5454 16.0061 17.653C16.175 17.7605 16.3823 17.8296 16.6281 17.8603C16.8738 17.891 17.1809 17.8142 17.5495 17.6299C17.8259 17.507 18.1484 17.3611 18.5169 17.1922C18.8855 17.0232 19.2924 16.8619 19.7378 16.7083C20.1831 16.5547 20.6362 16.4165 21.0969 16.2936C21.5576 16.1707 22.0029 16.0939 22.4329 16.0632C22.74 16.0325 23.0088 16.0248 23.2391 16.0402C23.4695 16.0555 23.6614 16.1246 23.815 16.2475C23.9071 16.309 23.9686 16.4549 23.9993 16.6853C24.03 16.9157 23.9993 17.1538 23.9071 17.3995C23.2007 19.1198 22.2256 20.8478 20.9817 22.5835C19.7378 24.3192 18.4709 25.909 17.1809 27.3528C16.843 27.6907 16.6588 27.9365 16.6281 28.0901C16.5973 28.2437 16.582 28.3512 16.582 28.4126C16.6434 28.8427 16.82 29.2574 17.1118 29.6568C17.4036 30.0562 17.7644 30.2251 18.1944 30.1637Z" fill="#161408"/>
</g>
<defs>
<clipPath id="clip0_32_304">
<rect width="47" height="45" fill="white" transform="translate(0.5)"/>
</clipPath>
</defs>
</svg>
