<svg width="48" height="52" viewBox="0 0 48 52" fill="none" xmlns="http://www.w3.org/2000/svg">
<g clip-path="url(#clip0_32_312)">
<path fill-rule="evenodd" clip-rule="evenodd" d="M29.2588 39.8332C33.3576 39.2295 37.3751 37.4851 39.9669 34.1407C42.5977 30.7457 43.408 26.2509 42.8099 22.0581C42.2732 18.3027 40.6956 15.1683 38.4728 12.5501C31.2186 9.02726 23.0676 6.14907 15.231 9.11279C6.84156 12.2854 2.72825 22.2037 6.59396 30.323C10.5375 38.6053 20.8011 41.0787 29.2588 39.8332ZM9.69171 10.1994C17.3517 4.00633 26.9568 5.86327 35.3902 9.54687C31.6944 6.52391 27.0851 4.39801 22.5623 2.91833C21.9564 2.72028 22.1934 1.66566 22.8324 1.809C29.0967 3.2159 35.3673 6.54805 39.542 11.5361C40.7334 12.1542 41.8893 12.7892 42.9942 13.4214C43.616 13.7772 43.0261 14.8679 42.382 14.5324C42.0332 14.3511 41.6806 14.1685 41.3264 13.9858C42.3632 15.6279 43.1874 17.4124 43.736 19.3356C46.3608 28.5451 42.1732 38.0346 32.7829 40.9047C24.1616 43.5399 12.3528 41.7586 6.71918 34.1881C1.17854 26.742 2.43318 16.0684 9.69171 10.1994Z" fill="#075C7C"/>
<path d="M23.7629 23.2502C25.5829 23.4902 27.0329 23.9402 28.1129 24.6002C29.1929 25.2602 29.7329 26.1402 29.7329 27.2402C29.7329 28.3202 29.0929 29.3902 27.8129 30.4502C26.5529 31.5102 25.0129 32.3402 23.1929 32.9402C21.3929 33.5402 19.5629 33.8402 17.7029 33.8402C15.8629 33.8402 14.9429 33.5002 14.9429 32.8202C14.9429 32.6402 15.5329 32.4102 16.7129 32.1302C17.9129 31.8302 19.2229 31.5202 20.6429 31.2002C22.0629 30.8602 23.3629 30.3302 24.5429 29.6102C25.7429 28.8702 26.3429 28.0202 26.3429 27.0602C26.3429 26.5402 25.9829 26.1202 25.2629 25.8002C24.5429 25.4602 23.7429 25.2202 22.8629 25.0802C20.5429 24.7402 19.3829 24.3402 19.3829 23.8802C19.3829 23.7202 19.4129 23.6002 19.4729 23.5202C19.6329 23.2402 20.1429 22.8502 21.0029 22.3502C21.8629 21.8502 22.7329 21.3602 23.6129 20.8802C24.5129 20.4002 25.3329 19.7702 26.0729 18.9902C26.8129 18.2102 27.1829 17.4202 27.1829 16.6202C27.1829 15.6802 26.6729 15.2102 25.6529 15.2102C24.8329 15.2102 23.7929 15.5402 22.5329 16.2002C21.2729 16.8402 20.5529 17.1602 20.3729 17.1602C20.2129 17.1602 19.9029 16.9502 19.4429 16.5302C18.9829 16.0902 18.7529 15.7602 18.7529 15.5402C18.7529 14.9402 19.5629 14.3202 21.1829 13.6802C22.8229 13.0402 24.2729 12.7202 25.5329 12.7202C26.7929 12.7202 27.8529 13.1502 28.7129 14.0102C29.5929 14.8702 30.0329 15.8602 30.0329 16.9802C30.0329 18.0802 29.4029 19.2102 28.1429 20.3702C26.8829 21.5102 25.4229 22.4702 23.7629 23.2502Z" fill="#161408"/>
</g>
<defs>
<clipPath id="clip0_32_312">
<rect width="47" height="52" fill="white" transform="translate(0.5)"/>
</clipPath>
</defs>
</svg>
