<svg width="10" height="11" viewBox="0 0 10 11" fill="none" xmlns="http://www.w3.org/2000/svg">
<g clip-path="url(#clip0_6_507)">
<path d="M3.66667 0.583186C3.35573 0.575751 3.04645 0.630572 2.75701 0.744424C2.46758 0.858276 2.20383 1.02886 1.98129 1.24614C1.75875 1.46342 1.58191 1.72302 1.46117 2.00965C1.34043 2.29628 1.27823 2.60416 1.27823 2.91519C1.27823 3.22621 1.34043 3.53409 1.46117 3.82072C1.58191 4.10736 1.75875 4.36695 1.98129 4.58423C2.20383 4.80151 2.46758 4.9721 2.75701 5.08595C3.04645 5.1998 3.35573 5.25462 3.66667 5.24719C3.9776 5.25462 4.28688 5.1998 4.57632 5.08595C4.86576 4.9721 5.1295 4.80151 5.35204 4.58423C5.57458 4.36695 5.75142 4.10736 5.87216 3.82072C5.9929 3.53409 6.0551 3.22621 6.0551 2.91519C6.0551 2.60416 5.9929 2.29628 5.87216 2.00965C5.75142 1.72302 5.57458 1.46342 5.35204 1.24614C5.1295 1.02886 4.86576 0.858276 4.57632 0.744424C4.28688 0.630572 3.9776 0.575751 3.66667 0.583186ZM2.33333 6.57919C1.71449 6.57919 1.121 6.82502 0.683417 7.2626C0.245833 7.70019 0 8.29368 0 8.91252L0 10.5772H7.33333V8.91252C7.33333 8.29368 7.0875 7.70019 6.64992 7.2626C6.21233 6.82502 5.61884 6.57919 5 6.57919H2.33333ZM8.33333 7.24985H8V10.5832H10V8.91652C10 8.47449 9.82441 8.05057 9.51184 7.73801C9.19928 7.42545 8.77536 7.24985 8.33333 7.24985Z" fill="white"/>
<path d="M7.66667 3.24988C7.22464 3.24988 6.80072 3.42547 6.48816 3.73803C6.17559 4.05059 6 4.47452 6 4.91654C6 5.35857 6.17559 5.7825 6.48816 6.09506C6.80072 6.40762 7.22464 6.58321 7.66667 6.58321C8.10869 6.58321 8.53262 6.40762 8.84518 6.09506C9.15774 5.7825 9.33333 5.35857 9.33333 4.91654C9.33333 4.47452 9.15774 4.05059 8.84518 3.73803C8.53262 3.42547 8.10869 3.24988 7.66667 3.24988Z" fill="white"/>
</g>
<defs>
<clipPath id="clip0_6_507">
<rect width="10" height="10" fill="white" transform="translate(0 0.583252)"/>
</clipPath>
</defs>
</svg>
