<svg width="24" height="24" viewBox="0 0 24 24" fill="none" xmlns="http://www.w3.org/2000/svg">
<g clip-path="url(#clip0_91_1114)">
<path d="M15.8506 0H3.41264C3.06636 0 2.78564 0.280714 2.78564 0.825429V23.5714C2.78564 23.7193 3.06636 24 3.41264 24H20.5872C20.9335 24 21.2142 23.7193 21.2142 23.5714V5.562C21.2142 5.26371 21.1744 5.16771 21.1041 5.097L16.1172 0.110143C16.0465 0.0398571 15.9505 0 15.8506 0Z" fill="#E9E9E0"/>
<path d="M16.0713 0.0647278V5.14287H21.1494L16.0713 0.0647278Z" fill="#D9D7CA"/>
<path d="M20.5872 24H3.41264C3.06636 24 2.78564 23.7193 2.78564 23.373V16.7143H21.2142V23.373C21.2142 23.7193 20.9335 24 20.5872 24Z" fill="#556080"/>
<path d="M10.828 18.396V18.9643L8.77132 22.0521L8.65432 22.146H10.828V22.7143H7.95703V22.146L10.0137 19.0581L10.1367 18.9643H7.95703V18.396H10.828Z" fill="white"/>
<path d="M12.5444 22.7143H11.8296V18.396H12.5444V22.7143Z" fill="white"/>
<path d="M14.32 22.7143H13.6167V18.396H14.8587C15.0421 18.396 15.2238 18.4251 15.4034 18.4839C15.583 18.5426 15.7441 18.6304 15.8868 18.7474C16.0296 18.8644 16.1448 19.0063 16.2327 19.1721C16.3206 19.338 16.3647 19.5244 16.3647 19.7319C16.3647 19.9509 16.3274 20.1489 16.2533 20.3267C16.1791 20.5046 16.0754 20.6541 15.9426 20.775C15.8097 20.8959 15.6494 20.9897 15.4621 21.0561C15.2748 21.1226 15.0674 21.1556 14.8411 21.1556H14.3196V22.7143H14.32ZM14.32 18.9291V20.64H14.9646C15.0503 20.64 15.1351 20.6254 15.2196 20.5959C15.3036 20.5667 15.3807 20.5187 15.451 20.4523C15.5213 20.3859 15.5778 20.2933 15.6207 20.1741C15.6636 20.055 15.685 19.9076 15.685 19.7319C15.685 19.6616 15.6751 19.5801 15.6558 19.4889C15.6361 19.3971 15.5963 19.3093 15.5358 19.2253C15.475 19.1413 15.3901 19.071 15.2808 19.0144C15.1716 18.9579 15.0267 18.9296 14.8471 18.9296L14.32 18.9291Z" fill="white"/>
<path d="M12.214 10.2857V9.42858H13.0711V8.57144H12.214V7.7143H13.0711V6.85716H12.214V6.00001H13.0711V5.14287H12.214V4.28573H13.0711V3.42858H12.214V2.57144H11.3569V3.42858H10.4997V4.28573H11.3569V5.14287H10.4997V6.00001H11.3569V6.85716H10.4997V7.7143H11.3569V8.57144H10.4997V9.42858H11.3569V10.2857H9.64258V12.4286C9.64258 13.6102 10.6039 14.5714 11.7854 14.5714C12.967 14.5714 13.9283 13.6102 13.9283 12.4286V10.2857H12.214ZM13.0711 12.4286C13.0711 13.1374 12.4943 13.7143 11.7854 13.7143C11.0766 13.7143 10.4997 13.1374 10.4997 12.4286V11.1429H13.0711V12.4286Z" fill="black"/>
<path d="M11.3568 12.8571H12.2139C12.4505 12.8571 12.6425 12.6656 12.6425 12.4286C12.6425 12.1916 12.4505 12 12.2139 12H11.3568C11.1202 12 10.9282 12.1916 10.9282 12.4286C10.9282 12.6656 11.1202 12.8571 11.3568 12.8571Z" fill="black"/>
</g>
<defs>
<clipPath id="clip0_91_1114">
<rect width="24" height="24" fill="white"/>
</clipPath>
</defs>
</svg>
