<svg width="16" height="16" viewBox="0 0 16 16" fill="none" xmlns="http://www.w3.org/2000/svg">
<path d="M7.03125 7.3125C6.625 7.6875 6.625 8.34375 7.03125 8.71875C7.40625 9.125 8.0625 9.125 8.4375 8.71875C8.84375 8.34375 8.84375 7.6875 8.4375 7.3125C8.0625 6.90625 7.40625 6.90625 7.03125 7.3125ZM7.75 0.25C3.46875 0.25 0 3.75 0 8C0 12.2812 3.46875 15.75 7.75 15.75C12 15.75 15.5 12.2812 15.5 8C15.5 3.75 12 0.25 7.75 0.25ZM11.6875 4.90625L9.625 9.40625C9.5 9.625 9.34375 9.78125 9.125 9.90625L4.625 11.9688C4.09375 12.1875 3.5625 11.6562 3.78125 11.125L5.84375 6.625C5.96875 6.40625 6.125 6.25 6.34375 6.125L10.8438 4.0625C11.375 3.84375 11.9062 4.375 11.6875 4.90625Z" fill="white"/>
</svg>
