<svg width="18" height="14" viewBox="0 0 18 14" fill="none" xmlns="http://www.w3.org/2000/svg">
<path d="M16.5 0H1.5C0.65625 0 0 0.6875 0 1.5V12.5C0 13.3438 0.65625 14 1.5 14H16.5C17.3125 14 18 13.3438 18 12.5V1.5C18 0.6875 17.3125 0 16.5 0ZM5.5 3C6.59375 3 7.5 3.90625 7.5 5C7.5 6.125 6.59375 7 5.5 7C4.375 7 3.5 6.125 3.5 5C3.5 3.90625 4.375 3 5.5 3ZM9 10.4062C9 10.75 8.6875 11 8.28125 11H2.6875C2.3125 11 2 10.75 2 10.4062V9.8125C2 8.8125 2.9375 8 4.09375 8H4.25C4.625 8.1875 5.03125 8.25 5.5 8.25C5.9375 8.25 6.34375 8.1875 6.71875 8H6.875C8.03125 8 9 8.8125 9 9.8125V10.4062ZM16 8.75C16 8.90625 15.875 9 15.75 9H11.25C11.0938 9 11 8.90625 11 8.75V8.25C11 8.125 11.0938 8 11.25 8H15.75C15.875 8 16 8.125 16 8.25V8.75ZM16 6.75C16 6.90625 15.875 7 15.75 7H11.25C11.0938 7 11 6.90625 11 6.75V6.25C11 6.125 11.0938 6 11.25 6H15.75C15.875 6 16 6.125 16 6.25V6.75ZM16 4.75C16 4.90625 15.875 5 15.75 5H11.25C11.0938 5 11 4.90625 11 4.75V4.25C11 4.125 11.0938 4 11.25 4H15.75C15.875 4 16 4.125 16 4.25V4.75Z" fill="white"/>
</svg>
